<svg width="20" height="21" viewBox="0 0 20 21" fill="none" xmlns="http://www.w3.org/2000/svg">
<g clip-path="url(#clip0_502_3742)">
<path d="M15 5.5C13.5715 5.5 11.4277 6.12617 10 6.75117C8.57103 6.12617 6.46879 5.50039 5.04022 5.5C1.42862 5.5 0.0184992 8.72266 0.000191169 11.75C-0.0235276 15.6551 2.85689 20.5 7.10287 20.5C8.53144 20.5 9.24573 19.875 9.96001 19.875C10.6743 19.875 11.3886 20.5 12.8172 20.5C17.1029 20.5 19.9779 15.7031 19.9198 11.75C19.9867 8.76562 18.5715 5.5 15 5.5ZM14.2858 1.75V0.5H12.8572C10.884 0.5 9.28576 1.89922 9.28576 3.625V4.875H10.7143C12.6875 4.875 14.2858 3.47578 14.2858 1.75Z" fill="#9E9E9E"/>
</g>
<defs>
<clipPath id="clip0_502_3742">
<rect width="20" height="20" fill="white" transform="translate(0 0.5)"/>
</clipPath>
</defs>
</svg>
