<svg width="20" height="20" viewBox="0 0 30 29" fill="none" xmlns="http://www.w3.org/2000/svg">
<path d="M0 5.3054C0 4.32897 0.959598 3.53711 2.14286 3.53711H27.8571C29.0424 3.53711 30 4.32897 30 5.3054C30 6.28349 29.0424 7.07369 27.8571 7.07369H2.14286C0.959598 7.07369 0 6.28349 0 5.3054ZM0 14.1469C0 13.1688 0.959598 12.3786 2.14286 12.3786H27.8571C29.0424 12.3786 30 13.1688 30 14.1469C30 15.125 29.0424 15.9152 27.8571 15.9152H2.14286C0.959598 15.9152 0 15.125 0 14.1469ZM27.8571 24.7566H2.14286C0.959598 24.7566 0 23.9664 0 22.9883C0 22.0102 0.959598 21.22 2.14286 21.22H27.8571C29.0424 21.22 30 22.0102 30 22.9883C30 23.9664 29.0424 24.7566 27.8571 24.7566Z" fill="#3BACB6"/>
</svg>
