<svg width="20" height="26" viewBox="0 0 20 26" fill="none" xmlns="http://www.w3.org/2000/svg">
<g clip-path="url(#clip0_509_6057)">
<path d="M11.4288 2.17578V3.11328C14.6877 3.8374 17.1431 6.99023 17.1431 10.7695V11.6875C17.1431 13.9873 17.9154 16.1992 19.3083 17.918L19.6386 18.3232C20.0136 18.7871 20.1074 19.4414 19.8752 20.0029C19.6431 20.5645 19.1342 20.9258 18.5717 20.9258H1.4288C0.866305 20.9258 0.356082 20.5645 0.125635 20.0029C-0.104811 19.4414 -0.0126371 18.7871 0.361126 18.3232L0.692198 17.918C2.08684 16.1992 2.85738 13.9873 2.85738 11.6875V10.7695C2.85738 6.99023 5.27255 3.8374 8.57166 3.11328V2.17578C8.57166 1.31299 9.21005 0.613281 10.0002 0.613281C10.7904 0.613281 11.4288 1.31299 11.4288 2.17578ZM10.0002 25.6133C9.2413 25.6133 8.51363 25.2861 7.97791 24.7002C7.4422 24.1143 7.14309 23.2744 7.14309 22.4883H12.8574C12.8574 23.2744 12.5583 24.1143 12.0226 24.7002C11.4868 25.2861 10.719 25.6133 10.0002 25.6133Z" fill="#3BACB6"/>
</g>
<defs>
<clipPath id="clip0_509_6057">
<rect width="20" height="25" fill="white" transform="translate(0 0.613281)"/>
</clipPath>
</defs>
</svg>
