<svg width="20" height="25" viewBox="0 0 20 25" fill="none" xmlns="http://www.w3.org/2000/svg">
<path d="M2.5 6.11328C2.5207 6.11328 2.5418 6.11328 2.5625 6.11328C2.85156 4.40188 4.11328 3.11328 5.625 3.11328C6.17578 3.11328 6.72266 3.30547 7.22266 3.64062C7.74219 2.43594 8.79297 1.61328 10 1.61328C11.207 1.61328 12.2578 2.43641 12.7773 3.64062C13.2422 3.30547 13.7891 3.11328 14.375 3.11328C15.8867 3.11328 17.1133 4.40188 17.4375 6.11328C17.457 6.11328 17.4805 6.11328 17.5 6.11328C18.8789 6.11328 20 7.45859 20 9.11328C20 9.66172 19.8789 10.1727 19.6641 10.6133H0.334492C0.121797 10.1727 5.07813e-05 9.66172 5.07813e-05 9.11328C5.07813e-05 7.45859 1.11953 6.11328 2.5 6.11328ZM3.90625e-05 13.3977C3.90625e-05 12.6898 0.479688 12.1133 1.07148 12.1133H18.9297C19.5195 12.1133 20 12.6898 20 13.3977C20 16.7023 18.2656 19.5242 15.832 20.6211L15.7617 21.2586C15.6836 22.0086 15.1523 22.6133 14.5234 22.6133H5.47656C4.84766 22.6133 4.31641 22.0086 4.23828 21.2586L4.16797 20.6211C1.73281 19.5242 0 16.7023 0 13.3977H3.90625e-05Z" fill="#3BACB6"/>
</svg>
