<svg width="24" height="24" viewBox="0 0 24 24" fill="none" xmlns="http://www.w3.org/2000/svg">
<g clip-path="url(#clip0_306_8595)">
<path d="M17.3304 2.40234C16.2214 3.30469 15.2143 4.25391 14.325 5.20781C12.8625 3.45094 11.0464 1.66406 9 0C3.73661 4.27125 0 9.84375 0 13.2C0 19.1672 5.36786 24 12 24C18.6321 24 24 19.1672 24 13.2C24 10.7063 21.2143 5.55469 17.3304 2.40234ZM16.2911 18.3703C15.1286 19.0781 13.7036 19.5 12.1554 19.5C8.29125 19.5 5.14286 17.2627 5.14286 13.6312C5.14286 11.8205 6.44143 10.2262 9.03964 7.5C9.41464 7.875 14.3368 13.3781 14.3368 13.3781L17.4777 10.2431C17.6987 10.5595 17.8991 10.8769 18.0798 11.1759C19.5482 13.6219 18.9321 16.7531 16.2911 18.3703Z" fill="#9E9E9E"/>
</g>
<defs>
<clipPath id="clip0_306_8595">
<rect width="24" height="24" fill="white"/>
</clipPath>
</defs>
</svg>
