<svg width="20" height="26" viewBox="0 0 20 26" fill="none" xmlns="http://www.w3.org/2000/svg">
<path d="M20 20.9168C20 23.273 17.7349 25.1875 14.9398 25.1875C12.1446 25.1875 9.87952 23.273 9.87952 20.9168C9.87952 18.5605 12.1446 16.6512 14.9398 16.6512C17.7349 16.6512 20 18.5605 20 20.9168ZM14.9398 8.53125C17.7349 8.53125 19.759 6.62188 19.759 4.26562C19.759 1.90937 17.7349 0 14.9398 0C12.1446 0 9.63855 1.90937 9.63855 4.26562C9.63855 6.62188 7.85542 8.125 5.06024 8.125C2.26506 8.125 0 10.2375 0 12.5938C0 14.95 2.26506 16.6562 5.06024 16.6562C7.85542 16.6562 10.1205 14.95 10.1205 12.5938C10.1205 10.2375 12.1446 8.53125 14.9398 8.53125Z" fill="#9E9E9E"/>
</svg>
