<svg width="73" height="69" viewBox="0 0 73 69" fill="none" xmlns="http://www.w3.org/2000/svg">
<path d="M71.5 34.5C71.5 52.9619 55.8705 68 36.5 68C17.1295 68 1.5 52.9619 1.5 34.5C1.5 16.0381 17.1295 1 36.5 1C55.8705 1 71.5 16.0381 71.5 34.5Z" fill="#B1F9FF" stroke="#195257" stroke-width="2"/>
<rect x="21.5" y="30" width="40" height="26" rx="4" fill="#19585E"/>
<g clip-path="url(#clip0_235_1255)">
<path d="M19.4541 27.9082C19.4514 27.8555 19.45 27.8027 19.45 27.75C19.45 26.0234 20.9044 24.625 22.7 24.625C23.9045 24.625 24.9547 25.2549 25.5173 26.1914C25.8261 25.9746 26.1998 25.875 26.6 25.875C27.6766 25.875 28.55 26.6973 28.55 27.75C28.55 27.9883 28.5033 28.2148 28.42 28.4258C29.6062 28.6562 30.5 29.666 30.5 30.875C30.5 32.2559 29.3361 33.375 27.9 33.375H20.425C18.8095 33.375 17.5 32.1152 17.5 30.5625C17.5 29.3359 18.316 28.293 19.4541 27.9082Z" fill="#EBEBEB"/>
</g>
<g clip-path="url(#clip1_235_1255)">
<circle cx="34" cy="36.5" r="12.5" fill="#BFCFF1"/>
<path d="M46.5 36.5C46.5 43.4043 40.9043 49 34 49C27.0957 49 21.5 43.4043 21.5 36.5C21.5 29.5957 27.0957 24 34 24C40.9043 24 46.5 29.5957 46.5 36.5ZM24.0234 38.4092L25.5728 38.7217C25.9565 38.7998 26.354 38.6777 26.6318 38.3994L27.3838 37.6475C27.9453 37.042 28.9023 37.2373 29.2588 37.9551L29.7129 38.8584C29.9033 39.3271 30.4258 39.5811 30.9482 39.5811C31.6904 39.5811 32.2227 38.9121 32.0078 38.1992L31.7197 37.2275C31.4902 36.4756 32.0566 35.7188 32.8428 35.7188H32.9551C33.5654 35.7188 34.2197 35.3916 34.5811 34.8496L35.1035 34.0635C35.377 33.6533 35.3623 33.1113 35.0645 32.7109L34.2783 31.6611C33.7754 30.9922 34.1172 30.0254 34.9326 29.8203L35.7627 29.5713C36.1289 29.5225 36.4268 29.2637 36.5684 28.9121L37.3643 26.9146C36.3145 26.5449 35.1816 26.3438 33.9561 26.3438C28.3896 26.3438 23.7998 30.8896 23.7998 36.5C23.7998 37.1543 23.9053 37.7939 24.0234 38.4092ZM43.4922 38.668L42.7207 38.8877C42.3936 38.9756 42.0469 38.8438 41.8662 38.5605L41.7686 38.4092C41.4756 37.9502 40.9678 37.6279 40.4209 37.6279C39.8789 37.6279 39.3271 37.9502 39.0732 38.4092L38.7754 38.873C38.707 38.9805 38.6143 39.0732 38.502 39.0928L36.6904 40.1182C35.8506 40.6113 35.4893 41.7002 35.8604 42.623L36.1729 43.2285C36.5928 44.166 37.6719 44.6201 38.5947 44.2588L38.7607 44.1709C39.2539 44.0293 39.8008 44.1074 40.2256 44.415L40.2988 44.4688C42.1152 43.0283 43.4287 40.9824 43.9316 38.6338C43.7852 38.6191 43.6387 38.6289 43.4922 38.668ZM29.1221 41.9443L30.6846 42.335C31.1045 42.4424 31.5293 42.1885 31.6318 41.7686C31.7393 41.3486 31.4854 40.9238 31.0654 40.8213L29.5029 40.4307C29.083 40.3232 28.6582 40.5771 28.5557 40.9971C28.4482 41.417 28.7021 41.8418 29.1221 41.9443ZM33.0479 40.0205C32.9404 40.4404 33.1943 40.8652 33.6143 40.9678C34.0342 41.0752 34.459 40.8213 34.5615 40.4014L34.9521 38.8389C35.0596 38.4189 34.8057 37.9941 34.3857 37.8916C33.9658 37.7842 33.541 38.0381 33.4385 38.458L33.0479 40.0205ZM37.208 29.8984L36.4268 31.4609C36.2314 31.8467 36.3877 32.3203 36.7734 32.5107C37.1592 32.7061 37.6328 32.5498 37.8232 32.1641L38.6045 30.6016C38.7998 30.2158 38.6436 29.7422 38.2578 29.5518C37.8721 29.3564 37.3984 29.5127 37.208 29.8984Z" fill="#16A747"/>
</g>
<path d="M34.2343 48.48C34.2343 47.7867 34.3843 47.17 34.6843 46.63C34.9843 46.0833 35.401 45.66 35.9343 45.36C36.4743 45.0533 37.0843 44.9 37.7643 44.9C38.5976 44.9 39.311 45.12 39.9043 45.56C40.4976 46 40.8943 46.6 41.0943 47.36H39.2143C39.0743 47.0667 38.8743 46.8433 38.6143 46.69C38.361 46.5367 38.071 46.46 37.7443 46.46C37.2176 46.46 36.791 46.6433 36.4643 47.01C36.1376 47.3767 35.9743 47.8667 35.9743 48.48C35.9743 49.0933 36.1376 49.5833 36.4643 49.95C36.791 50.3167 37.2176 50.5 37.7443 50.5C38.071 50.5 38.361 50.4233 38.6143 50.27C38.8743 50.1167 39.0743 49.8933 39.2143 49.6H41.0943C40.8943 50.36 40.4976 50.96 39.9043 51.4C39.311 51.8333 38.5976 52.05 37.7643 52.05C37.0843 52.05 36.4743 51.9 35.9343 51.6C35.401 51.2933 34.9843 50.87 34.6843 50.33C34.3843 49.79 34.2343 49.1733 34.2343 48.48ZM45.4615 52.07C44.8015 52.07 44.1948 51.9167 43.6415 51.61C43.0948 51.3033 42.6582 50.8767 42.3315 50.33C42.0115 49.7767 41.8515 49.1567 41.8515 48.47C41.8515 47.7833 42.0115 47.1667 42.3315 46.62C42.6582 46.0733 43.0948 45.6467 43.6415 45.34C44.1948 45.0333 44.8015 44.88 45.4615 44.88C46.1215 44.88 46.7248 45.0333 47.2715 45.34C47.8248 45.6467 48.2582 46.0733 48.5715 46.62C48.8915 47.1667 49.0515 47.7833 49.0515 48.47C49.0515 49.1567 48.8915 49.7767 48.5715 50.33C48.2515 50.8767 47.8182 51.3033 47.2715 51.61C46.7248 51.9167 46.1215 52.07 45.4615 52.07ZM45.4615 50.51C46.0215 50.51 46.4682 50.3233 46.8015 49.95C47.1415 49.5767 47.3115 49.0833 47.3115 48.47C47.3115 47.85 47.1415 47.3567 46.8015 46.99C46.4682 46.6167 46.0215 46.43 45.4615 46.43C44.8948 46.43 44.4415 46.6133 44.1015 46.98C43.7682 47.3467 43.6015 47.8433 43.6015 48.47C43.6015 49.09 43.7682 49.5867 44.1015 49.96C44.4415 50.3267 44.8948 50.51 45.4615 50.51ZM49.7728 50.63C49.9995 50.45 50.1028 50.3667 50.0828 50.38C50.7361 49.84 51.2495 49.3967 51.6228 49.05C52.0028 48.7033 52.3228 48.34 52.5828 47.96C52.8428 47.58 52.9728 47.21 52.9728 46.85C52.9728 46.5767 52.9095 46.3633 52.7828 46.21C52.6561 46.0567 52.4661 45.98 52.2128 45.98C51.9595 45.98 51.7595 46.0767 51.6128 46.27C51.4728 46.4567 51.4028 46.7233 51.4028 47.07H49.7528C49.7661 46.5033 49.8861 46.03 50.1128 45.65C50.3461 45.27 50.6495 44.99 51.0228 44.81C51.4028 44.63 51.8228 44.54 52.2828 44.54C53.0761 44.54 53.6728 44.7433 54.0728 45.15C54.4795 45.5567 54.6828 46.0867 54.6828 46.74C54.6828 47.4533 54.4395 48.1167 53.9528 48.73C53.4661 49.3367 52.8461 49.93 52.0928 50.51H54.7928V51.9H49.7728V50.63Z" fill="#263238"/>
<g clip-path="url(#clip2_235_1255)">
<path d="M44.4541 33.9082C44.4514 33.8555 44.45 33.8027 44.45 33.75C44.45 32.0234 45.9044 30.625 47.7 30.625C48.9045 30.625 49.9547 31.2549 50.5173 32.1914C50.8261 31.9746 51.1998 31.875 51.6 31.875C52.6766 31.875 53.55 32.6973 53.55 33.75C53.55 33.9883 53.5033 34.2148 53.42 34.4258C54.6062 34.6562 55.5 35.666 55.5 36.875C55.5 38.2559 54.3361 39.375 52.9 39.375H45.425C43.8095 39.375 42.5 38.1152 42.5 36.5625C42.5 35.3359 43.316 34.293 44.4541 33.9082Z" fill="#E6E6E6"/>
</g>
<defs>
<clipPath id="clip0_235_1255">
<rect width="13" height="10" fill="white" transform="translate(17.5 24)"/>
</clipPath>
<clipPath id="clip1_235_1255">
<rect width="25" height="25" fill="white" transform="translate(21.5 24)"/>
</clipPath>
<clipPath id="clip2_235_1255">
<rect width="13" height="10" fill="white" transform="translate(42.5 30)"/>
</clipPath>
</defs>
</svg>
