<svg width="21" height="20" viewBox="0 0 21 20" fill="none" xmlns="http://www.w3.org/2000/svg">
<g clip-path="url(#clip0_235_1240)">
<path d="M10.5 0C4.97656 0 0.5 4.47656 0.5 10C0.5 15.5234 4.97656 20 10.5 20C16.0234 20 20.5 15.5234 20.5 10C20.5 4.47656 16.0234 0 10.5 0ZM14.5078 10.8828L10.1328 15.2578C9.64453 15.7461 8.85352 15.7461 8.36523 15.2578C7.87695 14.7695 7.87695 13.9785 8.36523 13.4902L11.8594 10L8.36719 6.50781C7.87891 6.01953 7.87891 5.22852 8.36719 4.74023C8.85547 4.25195 9.64648 4.25195 10.1348 4.74023L14.5098 9.11523C14.7539 9.35938 14.875 9.67969 14.875 10C14.875 10.3203 14.7539 10.6406 14.5078 10.8828Z" fill="#455A64"/>
</g>
<defs>
<clipPath id="clip0_235_1240">
<rect width="20" height="20" fill="white" transform="translate(0.5)"/>
</clipPath>
</defs>
</svg>
