<svg width="40" height="36" viewBox="0 0 40 36" fill="none" xmlns="http://www.w3.org/2000/svg">
<g clip-path="url(#clip0_259_3245)">
<path d="M5.5555 24.5625C3.71522 24.5625 2.22217 26.0322 2.22217 27.8438C2.22217 29.6553 3.71522 31.125 5.5555 31.125C7.39578 31.125 8.88883 29.6553 8.88883 27.8438C8.88883 26.0322 7.39578 24.5625 5.5555 24.5625ZM34.4444 24.5625C32.6041 24.5625 31.1111 26.0322 31.1111 27.8438C31.1111 29.6553 32.6041 31.125 34.4444 31.125C36.2847 31.125 37.7777 29.6553 37.7777 27.8438C37.7777 26.0322 36.2847 24.5625 34.4444 24.5625ZM26.1805 25.3213C26.5017 24.3301 26.2934 23.2104 25.5034 22.4249C24.7048 21.6388 23.568 21.4419 22.5611 21.7499C22.0749 20.827 21.1284 20.1776 19.9999 20.1776C18.8715 20.1776 17.9249 20.827 17.4388 21.7499C16.4305 21.4316 15.2916 21.6367 14.4999 22.4297C13.7013 23.2158 13.5013 24.3349 13.8142 25.3261C12.8767 25.8046 12.217 26.7363 12.217 27.8472C12.217 28.958 12.8767 29.8897 13.8142 30.3683C13.493 31.3595 13.7013 32.4792 14.4999 33.2646C15.0729 33.8201 15.8194 34.1021 16.5659 34.1021C16.8611 34.1021 17.1562 34.0251 17.4423 33.9312C17.9236 34.8506 18.8749 35.5 19.9999 35.5C21.1249 35.5 22.0749 34.8506 22.5611 33.9277C22.8475 34.0132 23.1427 34.0986 23.4374 34.0986C24.184 34.0986 24.9305 33.8167 25.5034 33.2612C26.302 32.4751 26.502 31.3561 26.1805 30.3648C27.118 29.8877 27.7777 28.9512 27.7777 27.8438C27.7777 26.7363 27.118 25.7998 26.1805 25.3213ZM37.7777 15.8125C37.7777 12.1895 34.7916 9.25 31.1111 9.25C31.0677 9.25 31.0329 9.26709 30.9982 9.26709C31.0763 8.9082 31.1111 8.53906 31.1111 8.15625C31.1111 5.13135 28.6249 2.6875 25.5555 2.6875C23.8458 2.6875 22.3437 3.45654 21.3194 4.65283C20.0277 2.19189 17.4444 0.5 14.4444 0.5C10.1458 0.5 6.66661 3.92617 6.66661 8.15625C6.66661 8.65186 6.7187 9.13037 6.81418 9.60889C4.14925 10.4668 2.22217 12.9072 2.22217 15.8125C2.22217 19.4355 5.20828 22.375 8.88883 22.375H11.9013C12.1527 21.8281 12.4861 21.3223 12.9305 20.8848C13.8749 19.9688 15.1249 19.4424 16.4583 19.4287C17.3958 18.5332 18.6666 18 19.9999 18C21.3333 18 22.6041 18.5298 23.5416 19.4273C24.8784 19.4444 26.1284 19.9657 27.0659 20.8882C27.5138 21.3223 27.8541 21.8281 28.0972 22.375H31.1111C34.7916 22.375 37.7777 19.4355 37.7777 15.8125Z" fill="#FFD12E"/>
</g>
<defs>
<clipPath id="clip0_259_3245">
<rect width="40" height="35" fill="white" transform="translate(0 0.5)"/>
</clipPath>
</defs>
</svg>
