<svg width="37" height="41" viewBox="0 0 37 41" fill="none" xmlns="http://www.w3.org/2000/svg">
<g clip-path="url(#clip0_259_3247)">
<path d="M0.0099215 39.1016C-0.0829914 39.8438 0.531225 40.4977 1.32639 40.4977L3.97421 40.5027C4.64525 40.5027 5.23039 40.047 5.31298 39.4222C5.37493 39.0414 5.46734 38.5496 5.60155 38.0027H31.3694C31.5036 38.5398 31.6092 39.0425 31.6609 39.423C31.7538 39.9777 32.3084 40.5121 32.9798 40.5027L35.6607 40.4978C36.4556 40.4978 37.0746 39.8436 36.9813 39.1017C36.5993 36.1431 34.8546 29.0939 27.1449 22.8752C25.6996 23.8416 24.0907 24.7791 22.3151 25.6478C22.8312 26.0091 23.2698 26.3826 23.724 26.7533H13.1896C14.9446 25.3377 17.0738 23.9697 19.6852 22.7392C33.8988 16.0595 36.5087 5.64546 36.9877 1.90328C37.0806 1.16109 36.4676 0.506401 35.6729 0.506401L33.0027 0.500151C32.3317 0.500151 31.7771 0.955776 31.6846 1.58062C31.6227 1.96148 31.5303 2.45328 31.4064 3.00015H5.59467C5.47078 2.4532 5.37498 1.9696 5.31304 1.57898C5.22054 0.954214 4.66471 0.490386 3.99409 0.500151L1.32976 0.510526C0.534834 0.510526 -0.0816948 1.16318 0.0116311 1.90506C0.434901 5.25428 2.59585 13.9207 13.2177 20.5066C2.60576 27.086 0.433249 35.7501 0.0099215 39.1016ZM18.4918 17.6641C16.4188 16.586 14.6679 15.4454 13.1896 14.2501H23.8023C22.3322 15.4454 20.5648 16.6016 18.4918 17.6641ZM29.3275 8.00007C28.8423 8.81023 28.2638 9.65007 27.5931 10.4298H9.34092C8.65955 9.58054 8.0773 8.73992 7.60241 7.92976L29.3275 8.00007ZM7.68087 32.9298C8.16608 32.1196 8.73306 31.279 9.40451 30.4298H27.5246C28.2163 31.279 28.8031 32.1196 29.278 32.9298H7.68087Z" fill="#008000"/>
</g>
<defs>
<clipPath id="clip0_259_3247">
<rect width="37" height="40" fill="white" transform="translate(0 0.5)"/>
</clipPath>
</defs>
</svg>
