<svg width="20" height="21" viewBox="0 0 20 21" fill="none" xmlns="http://www.w3.org/2000/svg">
<g clip-path="url(#clip0_235_1322)">
<circle cx="10" cy="10.5" r="10" fill="#FAFAFA"/>
<path d="M20 10.5C20 16.0234 15.5234 20.5 10 20.5C4.47656 20.5 0 16.0234 0 10.5C0 4.97656 4.47656 0.5 10 0.5C15.5234 0.5 20 4.97656 20 10.5ZM2.01875 12.0273L3.2582 12.2773C3.56523 12.3398 3.8832 12.2422 4.10547 12.0195L4.70703 11.418C5.15625 10.9336 5.92187 11.0898 6.20703 11.6641L6.57031 12.3867C6.72266 12.7617 7.14062 12.9648 7.55859 12.9648C8.15234 12.9648 8.57812 12.4297 8.40625 11.8594L8.17578 11.082C7.99219 10.4805 8.44531 9.875 9.07422 9.875H9.16406C9.65234 9.875 10.1758 9.61328 10.4648 9.17969L10.8828 8.55078C11.1016 8.22266 11.0898 7.78906 10.8516 7.46875L10.2227 6.62891C9.82031 6.09375 10.0938 5.32031 10.7461 5.15625L11.4102 4.95703C11.7031 4.91797 11.9414 4.71094 12.0547 4.42969L12.6914 2.83164C11.8516 2.53594 10.9453 2.375 9.96484 2.375C5.51172 2.375 1.83984 6.01172 1.83984 10.5C1.83984 11.0234 1.92422 11.5352 2.01875 12.0273ZM17.5938 12.2344L16.9766 12.4102C16.7148 12.4805 16.4375 12.375 16.293 12.1484L16.2148 12.0273C15.9805 11.6602 15.5742 11.4023 15.1367 11.4023C14.7031 11.4023 14.2617 11.6602 14.0586 12.0273L13.8203 12.3984C13.7656 12.4844 13.6914 12.5586 13.6016 12.5742L12.1523 13.3945C11.4805 13.7891 11.1914 14.6602 11.4883 15.3984L11.7383 15.8828C12.0742 16.6328 12.9375 16.9961 13.6758 16.707L13.8086 16.6367C14.2031 16.5234 14.6406 16.5859 14.9805 16.832L15.0391 16.875C16.4922 15.7227 17.543 14.0859 17.9453 12.207C17.8281 12.1953 17.7109 12.2031 17.5938 12.2344ZM6.09766 14.8555L7.34766 15.168C7.68359 15.2539 8.02344 15.0508 8.10547 14.7148C8.19141 14.3789 7.98828 14.0391 7.65234 13.957L6.40234 13.6445C6.06641 13.5586 5.72656 13.7617 5.64453 14.0977C5.55859 14.4336 5.76172 14.7734 6.09766 14.8555ZM9.23828 13.3164C9.15234 13.6523 9.35547 13.9922 9.69141 14.0742C10.0273 14.1602 10.3672 13.957 10.4492 13.6211L10.7617 12.3711C10.8477 12.0352 10.6445 11.6953 10.3086 11.6133C9.97266 11.5273 9.63281 11.7305 9.55078 12.0664L9.23828 13.3164ZM12.5664 5.21875L11.9414 6.46875C11.7852 6.77734 11.9102 7.15625 12.2188 7.30859C12.5273 7.46484 12.9062 7.33984 13.0586 7.03125L13.6836 5.78125C13.8398 5.47266 13.7148 5.09375 13.4062 4.94141C13.0977 4.78516 12.7188 4.91016 12.5664 5.21875Z" fill="#359EA7"/>
</g>
<defs>
<clipPath id="clip0_235_1322">
<rect width="20" height="20" fill="white" transform="translate(0 0.5)"/>
</clipPath>
</defs>
</svg>
