<svg width="16" height="21" viewBox="0 0 16 21" fill="none" xmlns="http://www.w3.org/2000/svg">
<path d="M8 1.125C3.58333 1.125 0 8.23438 0 12.375C0 16.5156 3.54583 19.875 8 19.875C12.3792 19.875 16 16.5508 16 12.375C16 8.23438 12.3792 1.125 8 1.125ZM6.67083 5.89062C5.35833 7.41797 4 10.2578 4 12.375C4 12.7188 3.70167 13 3.33333 13C2.965 13 2.66667 12.7188 2.66667 12.375C2.66667 9.89219 4.19583 6.77734 5.63417 5.10938C5.86592 4.83961 6.28583 4.79809 6.57167 5.01539C6.85833 5.23047 6.90417 5.625 6.67083 5.89062Z" fill="#9E9E9E"/>
</svg>
