<svg width="40" height="40" viewBox="0 0 40 40" fill="none" xmlns="http://www.w3.org/2000/svg">
<g clip-path="url(#clip0_259_3244)">
<path d="M28.8839 4.00391C27.0357 5.50781 25.3571 7.08984 23.875 8.67969C21.4375 5.75156 18.4107 2.77344 15 0C6.22768 7.11875 0 16.4062 0 22C0 31.9453 8.94643 40 20 40C31.0536 40 40 31.9453 40 22C40 17.8438 35.3571 9.25781 28.8839 4.00391ZM27.1518 30.6172C25.2143 31.7969 22.8393 32.5 20.2589 32.5C13.8188 32.5 8.57143 28.7711 8.57143 22.7188C8.57143 19.7008 10.7357 17.0438 15.0661 12.5C15.6911 13.125 23.8946 22.2969 23.8946 22.2969L29.1295 17.0719C29.4978 17.5992 29.8319 18.1281 30.133 18.6266C32.5804 22.7031 31.5536 27.9219 27.1518 30.6172Z" fill="#FF5652"/>
</g>
<defs>
<clipPath id="clip0_259_3244">
<rect width="40" height="40" fill="white"/>
</clipPath>
</defs>
</svg>
