<svg width="73" height="69" viewBox="0 0 73 69" fill="none" xmlns="http://www.w3.org/2000/svg">
<path d="M71.5 34.5C71.5 52.9619 55.8705 68 36.5 68C17.1295 68 1.5 52.9619 1.5 34.5C1.5 16.0381 17.1295 1 36.5 1C55.8705 1 71.5 16.0381 71.5 34.5Z" fill="#2BEEFF" fill-opacity="0.37" stroke="#1B575C" stroke-width="2"/>
<path d="M50.6553 50.5521C50.6553 57.7318 35.835 53.0522 28.6553 53.0522C21.4756 53.0522 15.6553 47.232 15.6553 40.0522C15.6553 32.8725 21.4756 36.5521 28.6553 36.5521C35.835 36.5521 50.6553 43.3724 50.6553 50.5521Z" fill="#37474F"/>
<g clip-path="url(#clip0_235_1213)">
<path d="M33.0938 29.7344C33.0938 29.0874 33.6162 28.5625 34.2656 28.5625H35.0469C35.6963 28.5625 36.2188 29.0874 36.2188 29.7344C36.2188 30.3813 35.6963 30.9062 35.0469 30.9062H34.2656C33.6162 30.9062 33.0938 30.3813 33.0938 29.7344ZM35.0469 32.0781C35.6963 32.0781 36.2188 32.6006 36.2188 33.25C36.2188 33.8994 35.6963 34.4219 35.0469 34.4219H34.2656C33.6162 34.4219 33.0938 33.8994 33.0938 33.25C33.0938 32.6006 33.6162 32.0781 34.2656 32.0781H35.0469ZM28.0156 35.5938C28.6631 35.5938 29.1875 36.1162 29.1875 36.7656C29.1875 37.415 28.6631 37.9375 28.0156 37.9375H27.2344C26.5874 37.9375 26.0625 37.415 26.0625 36.7656C26.0625 36.1162 26.5874 35.5938 27.2344 35.5938H28.0156ZM24.5 40.8379C24.5 40.1006 25.0996 39.5 25.8394 39.5H48.1621C48.8994 39.5 49.5 40.1006 49.5 40.8379C49.5 44.2803 47.332 47.2197 44.29 48.3623L44.2021 49.0264C44.1045 49.8076 43.4404 50.4375 42.6543 50.4375H31.3457C30.5596 50.4375 29.8955 49.8076 29.7979 49.0264L29.71 48.3623C26.666 47.2197 24.5 44.2803 24.5 40.8379ZM35.4375 36.7656C35.4375 36.1162 35.96 35.5938 36.6094 35.5938H37.3906C38.04 35.5938 38.5625 36.1162 38.5625 36.7656C38.5625 37.415 38.04 37.9375 37.3906 37.9375H36.6094C35.96 37.9375 35.4375 37.415 35.4375 36.7656ZM30.75 36.7656C30.75 36.1162 31.2725 35.5938 31.9219 35.5938H32.7031C33.3525 35.5938 33.875 36.1162 33.875 36.7656C33.875 37.415 33.3525 37.9375 32.7031 37.9375H31.9219C31.2725 37.9375 30.75 37.415 30.75 36.7656ZM30.3594 32.0781C31.0088 32.0781 31.5312 32.6006 31.5312 33.25C31.5312 33.8994 31.0088 34.4219 30.3594 34.4219H29.5781C28.9312 34.4219 28.4062 33.8994 28.4062 33.25C28.4062 32.6006 28.9312 32.0781 29.5781 32.0781H30.3594ZM40.125 36.7656C40.125 36.1162 40.6475 35.5938 41.2969 35.5938H42.0781C42.7275 35.5938 43.25 36.1162 43.25 36.7656C43.25 37.415 42.7275 37.9375 42.0781 37.9375H41.2969C40.6475 37.9375 40.125 37.415 40.125 36.7656ZM39.7344 32.0781C40.3838 32.0781 40.9062 32.6006 40.9062 33.25C40.9062 33.8994 40.3838 34.4219 39.7344 34.4219H38.9531C38.3037 34.4219 37.7812 33.8994 37.7812 33.25C37.7812 32.6006 38.3037 32.0781 38.9531 32.0781H39.7344ZM44.8125 36.7656C44.8125 36.1162 45.335 35.5938 45.9844 35.5938H46.7656C47.415 35.5938 47.9375 36.1162 47.9375 36.7656C47.9375 37.415 47.415 37.9375 46.7656 37.9375H45.9844C45.335 37.9375 44.8125 37.415 44.8125 36.7656ZM44.4219 32.0781C45.0713 32.0781 45.5938 32.6006 45.5938 33.25C45.5938 33.8994 45.0713 34.4219 44.4219 34.4219H43.6406C42.9912 34.4219 42.4688 33.8994 42.4688 33.25C42.4688 32.6006 42.9912 32.0781 43.6406 32.0781H44.4219ZM39.7344 28.5625C40.3838 28.5625 40.9062 29.0874 40.9062 29.7344C40.9062 30.3813 40.3838 30.9062 39.7344 30.9062H38.9531C38.3037 30.9062 37.7812 30.3813 37.7812 29.7344C37.7812 29.0874 38.3037 28.5625 38.9531 28.5625H39.7344Z" fill="#FF7B3E"/>
<ellipse cx="34.5" cy="29.5" rx="2" ry="1.5" fill="#FAFAFA"/>
<ellipse cx="39.5" cy="29.5" rx="2" ry="1.5" fill="#FAFAFA"/>
<ellipse cx="44.5" cy="33.5" rx="2" ry="1.5" fill="#FAFAFA"/>
<ellipse cx="39.5" cy="33.5" rx="2" ry="1.5" fill="#FAFAFA"/>
<ellipse cx="34.5" cy="33.5" rx="2" ry="1.5" fill="#FAFAFA"/>
<ellipse cx="29.5" cy="33.5" rx="2" ry="1.5" fill="#FAFAFA"/>
<ellipse cx="27.5" cy="36.5" rx="2" ry="1.5" fill="#FAFAFA"/>
<ellipse cx="32.5" cy="36.5" rx="2" ry="1.5" fill="#FAFAFA"/>
<ellipse cx="37.5" cy="36.5" rx="2" ry="1.5" fill="#FAFAFA"/>
<ellipse cx="41.5" cy="36.5" rx="2" ry="1.5" fill="#FAFAFA"/>
<ellipse cx="46.5" cy="36.5" rx="2" ry="1.5" fill="#FAFAFA"/>
</g>
<g clip-path="url(#clip1_235_1213)">
<path d="M24.3345 15.7622C22.2811 16.575 21.9235 20.5396 22.6854 22.4646C23.4474 24.3896 25.714 25.2989 27.7848 24.4792C29.8207 23.6734 30.8923 21.4617 30.1239 19.5203C29.362 17.5953 26.3704 14.9564 24.3345 15.7622ZM24.5935 18.2224C24.2644 19.174 24.1554 20.7442 24.545 21.7285C24.6083 21.8883 24.5214 22.074 24.3501 22.1418C24.1789 22.2095 23.9884 22.1337 23.9252 21.9739C23.4683 20.8196 23.606 19.0901 23.9678 18.05C24.0259 17.8819 24.2135 17.7853 24.3863 17.8337C24.5592 17.881 24.6531 18.056 24.5935 18.2224Z" fill="#EB996E"/>
</g>
<g clip-path="url(#clip2_235_1213)">
<path d="M41.8375 21.579C41.1196 21.8632 40.9586 23.1585 41.204 23.7787C41.4495 24.3988 42.225 24.6738 42.949 24.3872C43.6609 24.1055 44.0524 23.3746 43.8048 22.7492C43.5594 22.1291 42.5494 21.2973 41.8375 21.579ZM41.904 22.3783C41.7812 22.6915 41.7287 23.2042 41.8542 23.5213C41.8746 23.5728 41.8428 23.6341 41.7829 23.6578C41.723 23.6815 41.6579 23.6586 41.6375 23.6071C41.4903 23.2352 41.5542 22.6703 41.6891 22.328C41.7108 22.2727 41.7766 22.2394 41.836 22.2536C41.8953 22.2674 41.9262 22.3235 41.904 22.3783Z" fill="#FFBF9D"/>
</g>
<g clip-path="url(#clip3_235_1213)">
<path d="M57.1871 29.7983C56.2328 29.1653 54.9972 29.3008 54.1773 30.0451L55.1053 31.258C55.2102 31.3951 55.1843 31.5902 55.0473 31.6952C54.979 31.7452 54.8947 31.7657 54.8149 31.7551C54.735 31.7445 54.6628 31.7033 54.6101 31.6372L53.7811 30.5363L50.6255 35.2953C50.5545 35.4041 50.5334 35.5441 50.5751 35.6753C50.653 35.9048 50.9025 36.0291 51.1293 35.9534L53.8836 35.0334L53.0596 33.9535C52.9519 33.8185 52.9782 33.62 53.1174 33.5179C53.2545 33.4129 53.4504 33.4389 53.553 33.5757L54.5098 34.8253L56.6129 34.1215C57.1075 33.958 57.5548 33.6306 57.8658 33.1622C58.6088 32.046 58.3041 30.5416 57.1871 29.7983ZM59.0578 29.361C59.5402 28.6212 59.4703 27.6638 58.7687 26.9229C57.6885 27.6021 57.4757 28.8693 58.2258 29.8436L58.3602 30.0191C59.1221 30.9989 60.4037 31.1257 61.3384 30.2587C60.8035 29.4055 59.8804 29.086 59.0578 29.361Z" fill="#BA0606"/>
</g>
<defs>
<clipPath id="clip0_235_1213">
<rect width="25" height="25" fill="white" transform="translate(24.5 27)"/>
</clipPath>
<clipPath id="clip1_235_1213">
<rect width="8" height="10" fill="white" transform="translate(20.5 16.9434) rotate(-21.5943)"/>
</clipPath>
<clipPath id="clip2_235_1213">
<rect width="2.79714" height="3.22152" fill="white" transform="translate(40.5 22) rotate(-21.5943)"/>
</clipPath>
<clipPath id="clip3_235_1213">
<rect width="10" height="10" fill="white" transform="translate(51.8159 26) rotate(7.56079)"/>
</clipPath>
</defs>
</svg>
