<svg width="20" height="21" viewBox="0 0 20 21" fill="none" xmlns="http://www.w3.org/2000/svg">
<g clip-path="url(#clip0_235_1314)">
<path d="M9.89279 6.30835C10.0312 6.80054 10.0356 7.31616 9.91511 7.81226C9.79011 8.2771 9.53564 8.7771 9.1785 9.17554C8.53118 9.82007 7.72314 10.2302 6.74546 10.4255V18.9373C6.74546 19.3513 6.59814 19.7498 6.26332 20.0427C5.9285 20.3357 5.47314 20.4998 4.95975 20.4998C4.52671 20.4998 4.07225 20.3357 3.73698 20.0427C3.40216 19.7498 3.17404 19.3513 3.17404 18.9373V10.4255C2.27493 10.2693 1.42671 9.83179 0.816893 9.18726C0.454839 8.78882 0.202116 8.32398 0.0782766 7.82398C-0.0455627 7.32398 -0.0371922 6.80835 0.102741 6.31226L1.45127 0.986085C1.48921 0.835617 1.58966 0.702765 1.73296 0.613039C1.87582 0.523273 2.05216 0.482972 2.22716 0.499859C2.40261 0.516562 2.56511 0.589718 2.68296 0.705187C2.80082 0.820617 2.86511 0.97007 2.86421 1.12476V6.74976H3.63966L4.40261 0.964992C4.42046 0.837062 4.491 0.719328 4.60261 0.633898C4.70975 0.548507 4.85261 0.501324 4.95975 0.501324C5.14725 0.501324 5.29011 0.548507 5.39725 0.633898C5.50886 0.719328 5.54011 0.837062 5.59814 0.964992L6.36154 6.74976H7.10261V1.12476C7.10261 0.971242 7.20529 0.822726 7.28118 0.707453C7.43743 0.592179 7.59814 0.518273 7.77225 0.499859C7.94636 0.483109 8.08475 0.523937 8.26779 0.614445C8.41064 0.704953 8.50886 0.838703 8.54904 0.989992L9.89279 6.30835ZM19.9999 18.9373C19.9999 19.3513 19.8124 19.7498 19.4776 20.0427C19.1428 20.3357 18.6874 20.4998 18.2142 20.4998C17.741 20.4998 17.2856 20.3357 16.9508 20.0427C16.616 19.7498 16.4285 19.3513 16.4285 18.9373V14.2498H15.6785C15.3035 14.2498 14.9285 14.1834 14.5803 14.0584C14.2365 13.9294 13.9196 13.7459 13.6517 13.5115C13.3883 13.2771 13.1785 12.9998 12.9955 12.6951C12.8928 12.3904 12.8214 12.0623 12.8214 11.7341L12.8169 7.28882C12.8571 5.84741 13.3526 4.43726 14.2767 3.24507C15.2008 2.05093 16.5089 1.12671 18.0401 0.591124C18.2187 0.515421 18.491 0.487249 18.7231 0.509097C18.9553 0.530937 19.1785 0.602101 19.3705 0.716398C19.5624 0.830695 19.7231 0.984523 19.8303 1.16499C19.9419 1.34507 19.9598 1.54585 19.9999 1.74976V18.9373Z" fill="#3BACB6"/>
</g>
<defs>
<clipPath id="clip0_235_1314">
<rect width="20" height="20" fill="white" transform="translate(0 0.5)"/>
</clipPath>
</defs>
</svg>
