<svg width="18" height="19" viewBox="0 0 18 19" fill="none" xmlns="http://www.w3.org/2000/svg">
<g clip-path="url(#clip0_502_3722)">
<path d="M16.3477 5.21751C17.1021 3.86821 17.0462 2.15294 16.149 0.889773C15.8839 0.509031 15.3647 0.414109 14.9818 0.681016C14.6032 0.94743 14.5093 1.47379 14.7746 1.85559C15.2812 2.58543 15.3065 3.53219 14.9186 4.30844C14.3121 4.01868 13.6406 3.8429 12.9375 3.8429C11.6638 3.8429 10.5142 4.32911 9.62438 5.10571L12.375 6.3179V9.49954H15.5588L16.7375 12.2498C17.5148 11.3593 18 10.2097 18 8.9054C18 7.46048 17.3566 6.14563 16.3477 5.21751ZM11.25 10.6245V7.0597L9.38848 6.262C7.60078 8.98274 6.62695 14.562 1.96875 14.562C0.883477 14.562 0 15.4445 0 16.5308C0 17.6171 0.883477 18.4995 1.96875 18.4995C8.30742 18.4995 13.2223 15.3963 15.6551 12.5757L14.8184 10.6245H11.25Z" fill="#9E9E9E"/>
</g>
<defs>
<clipPath id="clip0_502_3722">
<rect width="18" height="18" fill="white" transform="translate(0 0.5)"/>
</clipPath>
</defs>
</svg>
