<svg width="20" height="21" viewBox="0 0 20 21" fill="none" xmlns="http://www.w3.org/2000/svg">
<path d="M10 4.875V5.5C10 5.84375 9.71875 6.125 9.375 6.125C7.64844 6.125 6.25 4.72656 6.25 3V2.375C6.25 2.02969 6.53125 1.75 6.875 1.75C8.60156 1.75 10 3.14922 10 4.875ZM4.0625 3C4.58203 3 5 3.41992 5 3.9375C5 4.45703 4.58203 4.875 4.0625 4.875H2.1875C1.66992 4.875 1.25 4.45703 1.25 3.9375C1.25 3.41992 1.66992 3 2.1875 3H4.0625ZM5.3125 5.8125C5.83203 5.8125 6.25 6.23047 6.25 6.75C6.25 7.26953 5.83203 7.6875 5.3125 7.6875H0.9375C0.419922 7.6875 0 7.26953 0 6.75C0 6.23047 0.419922 5.8125 0.9375 5.8125H5.3125ZM1.25 9.5625C1.25 9.04297 1.66992 8.625 2.1875 8.625H4.0625C4.58203 8.625 5 9.04297 5 9.5625C5 10.082 4.58203 10.5 4.0625 10.5H2.1875C1.66992 10.5 1.25 10.082 1.25 9.5625ZM10.625 2.375C10.625 2.02969 10.9062 1.75 11.25 1.75C12.9766 1.75 14.375 3.14922 14.375 4.875V5.5C14.375 5.84375 14.0937 6.125 13.75 6.125C12.0234 6.125 10.625 4.72656 10.625 3V2.375ZM18.75 4.875V5.5C18.75 5.84375 18.4687 6.125 18.125 6.125C16.3984 6.125 15 4.72656 15 3V2.375C15 2.02969 15.2812 1.75 15.625 1.75C17.3516 1.75 18.75 3.14922 18.75 4.875ZM18.75 8.625C18.75 10.3516 17.3516 11.75 15.625 11.75C15.2812 11.75 15 11.4688 15 11.125V10.5C15 8.77344 16.3984 7.375 18.125 7.375C18.4687 7.375 18.75 7.65625 18.75 8V8.625ZM13.75 7.375C14.0937 7.375 14.375 7.65625 14.375 8V8.625C14.375 10.3516 12.9766 11.75 11.25 11.75C10.9062 11.75 10.625 11.4688 10.625 11.125V10.5C10.625 8.77344 12.0234 7.375 13.75 7.375ZM10 8.625C10 10.3516 8.60156 11.75 6.875 11.75C6.53125 11.75 6.25 11.4688 6.25 11.125V10.5C6.25 8.77344 7.64844 7.375 9.375 7.375C9.71875 7.375 10 7.65625 10 8V8.625ZM0.134805 14.0781C0.0632031 13.5039 0.509766 13 1.08672 13H18.9141C19.457 13 19.9375 13.5039 19.8672 14.0781C19.6211 16.0391 18.1328 17.5703 16.25 17.9219V18C16.25 18.6914 15.6914 19.25 15 19.25H4.96484C4.30859 19.25 3.71484 18.6914 3.71484 18V17.9219C1.86875 17.5703 0.379844 16.0391 0.134766 14.0781H0.134805Z" fill="#9E9E9E"/>
</svg>
