<svg width="18" height="18" viewBox="0 0 18 18" fill="none" xmlns="http://www.w3.org/2000/svg">
<g clip-path="url(#clip0_509_6052)">
<path d="M17.5886 14.8704L13.3804 11.1221C14.3374 9.85675 14.8095 8.27573 14.5568 6.59107C14.1257 3.72557 11.489 1.39365 8.26871 1.0305C3.48078 0.490879 -0.545314 4.0769 0.0605687 8.34149C0.468381 11.2111 3.08682 13.5615 6.30432 13.9435C8.19573 14.1686 9.97111 13.7482 11.3914 12.8957L15.5996 16.644C16.1488 17.1331 17.0393 17.1331 17.5884 16.644C18.1371 16.1542 18.1371 15.3589 17.5886 14.8704ZM2.78082 7.48976C2.78082 5.27965 4.79949 3.48163 7.28082 3.48163C9.76215 3.48163 11.7808 5.27965 11.7808 7.48976C11.7808 9.69987 9.76215 11.4979 7.28082 11.4979C4.79949 11.4979 2.78082 9.7005 2.78082 7.48976Z" fill="white"/>
</g>
<defs>
<clipPath id="clip0_509_6052">
<rect width="18" height="16.0325" fill="white" transform="translate(0 0.976562)"/>
</clipPath>
</defs>
</svg>
