<svg width="20" height="20" viewBox="0 0 20 20" fill="none" xmlns="http://www.w3.org/2000/svg">
<g clip-path="url(#clip0_509_6063)">
<path d="M10 9.64183C13.1563 9.64183 15.7143 7.53056 15.7143 4.92638C15.7143 2.32221 13.1563 0.210938 10 0.210938C6.84375 0.210938 4.28571 2.32221 4.28571 4.92638C4.28571 7.53056 6.84375 9.64183 10 9.64183ZM12.2634 11.4101H7.73661C3.46473 11.4101 0 14.2689 0 17.7944C0 18.4995 0.692857 19.0716 1.54732 19.0716H18.4536C19.308 19.0727 20 18.5017 20 17.7944C20 14.2689 16.5357 11.4101 12.2634 11.4101Z" fill="#3BACB6"/>
</g>
<defs>
<clipPath id="clip0_509_6063">
<rect width="20" height="18.8618" fill="white" transform="translate(0 0.210938)"/>
</clipPath>
</defs>
</svg>
