<svg width="40" height="41" viewBox="0 0 40 41" fill="none" xmlns="http://www.w3.org/2000/svg">
<g clip-path="url(#clip0_259_3246)">
<path d="M32.5078 10.5078C31.8438 11.3047 30.6562 11.3047 29.9219 10.5078C29.1953 9.84375 29.1953 8.65625 29.9219 7.92422L36.7969 1.04914C37.5312 0.316953 38.7188 0.316953 39.3828 1.04914C40.1797 1.78125 40.1797 2.96875 39.3828 3.70078L32.5078 10.5078ZM24.75 3.51797C25.1016 3.87109 25.4219 4.24531 25.7109 4.63516L29.2969 1.04914C30.0312 0.316953 31.2188 0.316953 31.8828 1.04914C32.6797 1.78125 32.6797 2.96875 31.8828 3.70078L27.3984 8.25C27.8047 9.92969 27.7656 11.6875 27.2891 13.3516C28.875 12.8984 30.5547 12.7734 32.1641 13.1875L36.7969 8.54688C37.5312 7.81719 38.7188 7.81719 39.3828 8.54688C40.1797 9.28125 40.1797 10.4688 39.3828 11.1328L35.8438 14.8047C36.2891 15.125 36.7188 15.4922 37.125 15.8906L38.0078 16.7734C38.4922 17.2656 38.4922 18.0547 38.0078 18.4766L37.125 19.4297C34.1953 22.3594 29.4453 22.3594 26.5156 19.4297L25.5625 18.4766L23.0703 20.8984C25.2969 21.1797 27.4609 22.1406 29.1719 23.8438L30.0547 24.7344C30.5391 25.2188 30.5391 26.0078 30.0547 26.5L29.1719 27.3828C26.2422 30.3125 21.4922 30.3125 18.5625 27.3828L17.6094 26.4297L15.1172 28.9219C17.2734 29.1328 19.5078 30.0938 21.2109 31.8047L22.0938 32.6172C22.5859 33.1719 22.5859 33.9688 22.0938 34.4531L21.2109 35.3359C18.2812 38.2656 13.5391 38.2656 10.6094 35.3359L9.64844 34.3828L4.26797 39.7656C3.29141 40.7422 1.70859 40.7422 0.732188 39.7656C-0.244063 38.7891 -0.244063 37.2109 0.732188 36.2344L6.11641 30.8516L5.30312 30.0312C2.37422 27.1094 2.37422 22.3594 5.30312 19.4297L6.1875 18.4766C6.675 18.0547 7.46641 18.0547 7.95312 18.4766L8.83594 19.4297C10.4766 21.0703 11.4297 23.1328 11.6953 25.2734L14.0703 22.8906L13.2578 22.0781C10.3281 19.1484 10.3281 14.3984 13.2578 11.4766L14.1406 10.5859C14.6328 10.1016 15.4219 10.1016 15.9062 10.5859L16.7266 11.4766C18.3672 13.1094 19.3828 15.1797 19.6484 17.3203L22.0234 14.9375L21.2109 14.125C18.2812 11.1953 18.2812 6.44688 21.2109 3.51797L22.0938 2.63359C22.5859 2.14609 23.375 2.14609 23.8672 2.63359L24.75 3.51797Z" fill="#EBB376"/>
</g>
<defs>
<clipPath id="clip0_259_3246">
<rect width="40" height="40" fill="white" transform="translate(0 0.5)"/>
</clipPath>
</defs>
</svg>
