<svg width="250" height="261" viewBox="0 0 250 261" fill="none" xmlns="http://www.w3.org/2000/svg">
<circle cx="125" cy="125" r="125" fill="#002E74"/>
<path d="M225 161C225 187.522 214.464 212.957 195.711 231.711C176.957 250.464 151.522 261 125 261C98.4784 261 73.043 250.464 54.2893 231.711C35.5357 212.957 25 187.522 25 161L125 161H225Z" fill="#FFFBFB"/>
<path d="M54.1364 201.784V197.727H73.25V201.784H66.125V221H61.2614V201.784H54.1364ZM81.6619 221.341C79.8968 221.341 78.3703 220.966 77.0824 220.216C75.8021 219.458 74.8134 218.405 74.1165 217.057C73.4195 215.701 73.071 214.129 73.071 212.341C73.071 210.538 73.4195 208.962 74.1165 207.614C74.8134 206.258 75.8021 205.205 77.0824 204.455C78.3703 203.697 79.8968 203.318 81.6619 203.318C83.4271 203.318 84.9498 203.697 86.2301 204.455C87.518 205.205 88.5104 206.258 89.2074 207.614C89.9044 208.962 90.2528 210.538 90.2528 212.341C90.2528 214.129 89.9044 215.701 89.2074 217.057C88.5104 218.405 87.518 219.458 86.2301 220.216C84.9498 220.966 83.4271 221.341 81.6619 221.341ZM81.6847 217.591C82.4877 217.591 83.1581 217.364 83.696 216.909C84.2339 216.447 84.6392 215.818 84.9119 215.023C85.1922 214.227 85.3324 213.322 85.3324 212.307C85.3324 211.292 85.1922 210.386 84.9119 209.591C84.6392 208.795 84.2339 208.167 83.696 207.705C83.1581 207.242 82.4877 207.011 81.6847 207.011C80.8741 207.011 80.1922 207.242 79.6392 207.705C79.0938 208.167 78.6809 208.795 78.4006 209.591C78.1278 210.386 77.9915 211.292 77.9915 212.307C77.9915 213.322 78.1278 214.227 78.4006 215.023C78.6809 215.818 79.0938 216.447 79.6392 216.909C80.1922 217.364 80.8741 217.591 81.6847 217.591ZM99.8324 221.284C98.5066 221.284 97.3059 220.943 96.2301 220.261C95.1619 219.572 94.3134 218.561 93.6847 217.227C93.0634 215.886 92.7528 214.242 92.7528 212.295C92.7528 210.295 93.0748 208.633 93.7188 207.307C94.3627 205.973 95.2188 204.977 96.2869 204.318C97.3627 203.652 98.5407 203.318 99.821 203.318C100.798 203.318 101.613 203.485 102.264 203.818C102.923 204.144 103.454 204.553 103.855 205.045C104.264 205.53 104.575 206.008 104.787 206.477H104.935V197.727H109.764V221H104.991V218.205H104.787C104.56 218.689 104.238 219.17 103.821 219.648C103.412 220.117 102.878 220.508 102.219 220.818C101.567 221.129 100.772 221.284 99.8324 221.284ZM101.366 217.432C102.147 217.432 102.806 217.22 103.344 216.795C103.889 216.364 104.306 215.761 104.594 214.989C104.889 214.216 105.037 213.311 105.037 212.273C105.037 211.235 104.893 210.333 104.605 209.568C104.317 208.803 103.901 208.212 103.355 207.795C102.81 207.379 102.147 207.17 101.366 207.17C100.571 207.17 99.9006 207.386 99.3551 207.818C98.8097 208.25 98.3968 208.848 98.1165 209.614C97.8362 210.379 97.696 211.265 97.696 212.273C97.696 213.288 97.8362 214.186 98.1165 214.966C98.4044 215.739 98.8172 216.345 99.3551 216.784C99.9006 217.216 100.571 217.432 101.366 217.432ZM121.631 221.341C119.866 221.341 118.339 220.966 117.051 220.216C115.771 219.458 114.782 218.405 114.085 217.057C113.388 215.701 113.04 214.129 113.04 212.341C113.04 210.538 113.388 208.962 114.085 207.614C114.782 206.258 115.771 205.205 117.051 204.455C118.339 203.697 119.866 203.318 121.631 203.318C123.396 203.318 124.919 203.697 126.199 204.455C127.487 205.205 128.479 206.258 129.176 207.614C129.873 208.962 130.222 210.538 130.222 212.341C130.222 214.129 129.873 215.701 129.176 217.057C128.479 218.405 127.487 219.458 126.199 220.216C124.919 220.966 123.396 221.341 121.631 221.341ZM121.653 217.591C122.456 217.591 123.127 217.364 123.665 216.909C124.203 216.447 124.608 215.818 124.881 215.023C125.161 214.227 125.301 213.322 125.301 212.307C125.301 211.292 125.161 210.386 124.881 209.591C124.608 208.795 124.203 208.167 123.665 207.705C123.127 207.242 122.456 207.011 121.653 207.011C120.843 207.011 120.161 207.242 119.608 207.705C119.063 208.167 118.65 208.795 118.369 209.591C118.097 210.386 117.96 211.292 117.96 212.307C117.96 213.322 118.097 214.227 118.369 215.023C118.65 215.818 119.063 216.447 119.608 216.909C120.161 217.364 120.843 217.591 121.653 217.591ZM133.46 221V197.727H138.381V216.943H148.358V221H133.46ZM151.526 221V203.545H156.366V221H151.526ZM153.957 201.295C153.238 201.295 152.62 201.057 152.105 200.58C151.598 200.095 151.344 199.515 151.344 198.841C151.344 198.174 151.598 197.602 152.105 197.125C152.62 196.64 153.238 196.398 153.957 196.398C154.677 196.398 155.291 196.64 155.798 197.125C156.313 197.602 156.571 198.174 156.571 198.841C156.571 199.515 156.313 200.095 155.798 200.58C155.291 201.057 154.677 201.295 153.957 201.295ZM174.767 208.523L170.335 208.795C170.259 208.417 170.097 208.076 169.847 207.773C169.597 207.462 169.267 207.216 168.858 207.034C168.456 206.845 167.975 206.75 167.415 206.75C166.665 206.75 166.032 206.909 165.517 207.227C165.002 207.538 164.744 207.955 164.744 208.477C164.744 208.894 164.911 209.246 165.244 209.534C165.578 209.822 166.15 210.053 166.96 210.227L170.119 210.864C171.816 211.212 173.081 211.773 173.915 212.545C174.748 213.318 175.165 214.333 175.165 215.591C175.165 216.735 174.828 217.739 174.153 218.602C173.487 219.466 172.57 220.14 171.403 220.625C170.244 221.102 168.907 221.341 167.392 221.341C165.081 221.341 163.241 220.86 161.869 219.898C160.506 218.928 159.706 217.61 159.472 215.943L164.233 215.693C164.377 216.398 164.725 216.936 165.278 217.307C165.831 217.67 166.54 217.852 167.403 217.852C168.252 217.852 168.934 217.689 169.449 217.364C169.972 217.03 170.237 216.602 170.244 216.08C170.237 215.64 170.051 215.28 169.688 215C169.324 214.712 168.763 214.492 168.006 214.341L164.983 213.739C163.278 213.398 162.009 212.807 161.176 211.966C160.35 211.125 159.938 210.053 159.938 208.75C159.938 207.629 160.241 206.663 160.847 205.852C161.46 205.042 162.32 204.417 163.426 203.977C164.54 203.538 165.843 203.318 167.335 203.318C169.54 203.318 171.275 203.784 172.54 204.716C173.813 205.648 174.555 206.917 174.767 208.523ZM187.497 203.545V207.182H176.986V203.545H187.497ZM179.372 199.364H184.213V215.636C184.213 216.083 184.281 216.432 184.418 216.682C184.554 216.924 184.743 217.095 184.986 217.193C185.236 217.292 185.524 217.341 185.849 217.341C186.077 217.341 186.304 217.322 186.531 217.284C186.759 217.239 186.933 217.205 187.054 217.182L187.815 220.784C187.573 220.86 187.232 220.947 186.793 221.045C186.353 221.152 185.819 221.216 185.19 221.239C184.024 221.284 183.001 221.129 182.122 220.773C181.251 220.417 180.573 219.864 180.088 219.114C179.603 218.364 179.365 217.417 179.372 216.273V199.364Z" fill="black"/>
<path d="M114 147H170.25" stroke="white" stroke-width="2" stroke-linecap="round" stroke-linejoin="round"/>
<path d="M142.125 43.875C144.611 41.3885 147.984 39.9917 151.5 39.9917C153.241 39.9917 154.965 40.3346 156.574 41.0009C158.182 41.6672 159.644 42.6438 160.875 43.875C162.106 45.1061 163.083 46.5677 163.749 48.1762C164.415 49.7848 164.758 51.5089 164.758 53.25C164.758 54.991 164.415 56.7151 163.749 58.3237C163.083 59.9322 162.106 61.3938 160.875 62.625L82.75 140.75L57.75 147L64 122L142.125 43.875Z" stroke="white" stroke-width="2" stroke-linecap="round" stroke-linejoin="round"/>
</svg>
