<svg width="20" height="21" viewBox="0 0 20 21" fill="none" xmlns="http://www.w3.org/2000/svg">
<path d="M6.875 2.6875C6.875 2.16992 7.29297 1.75 7.8125 1.75H8.4375C8.95703 1.75 9.375 2.16992 9.375 2.6875C9.375 3.20508 8.95703 3.625 8.4375 3.625H7.8125C7.29297 3.625 6.875 3.20508 6.875 2.6875ZM8.4375 4.5625C8.95703 4.5625 9.375 4.98047 9.375 5.5C9.375 6.01953 8.95703 6.4375 8.4375 6.4375H7.8125C7.29297 6.4375 6.875 6.01953 6.875 5.5C6.875 4.98047 7.29297 4.5625 7.8125 4.5625H8.4375ZM2.8125 7.375C3.33047 7.375 3.75 7.79297 3.75 8.3125C3.75 8.83203 3.33047 9.25 2.8125 9.25H2.1875C1.66992 9.25 1.25 8.83203 1.25 8.3125C1.25 7.79297 1.66992 7.375 2.1875 7.375H2.8125ZM3.90625e-05 11.5703C3.90625e-05 10.9805 0.479688 10.5 1.07148 10.5H18.9297C19.5195 10.5 20 10.9805 20 11.5703C20 14.3242 18.2656 16.6758 15.832 17.5898L15.7617 18.1211C15.6836 18.7461 15.1523 19.25 14.5234 19.25H5.47656C4.84766 19.25 4.31641 18.7461 4.23828 18.1211L4.16797 17.5898C1.73281 16.6758 0 14.3242 0 11.5703H3.90625e-05ZM8.75 8.3125C8.75 7.79297 9.16797 7.375 9.6875 7.375H10.3125C10.832 7.375 11.25 7.79297 11.25 8.3125C11.25 8.83203 10.832 9.25 10.3125 9.25H9.6875C9.16797 9.25 8.75 8.83203 8.75 8.3125ZM5 8.3125C5 7.79297 5.41797 7.375 5.9375 7.375H6.5625C7.08203 7.375 7.5 7.79297 7.5 8.3125C7.5 8.83203 7.08203 9.25 6.5625 9.25H5.9375C5.41797 9.25 5 8.83203 5 8.3125ZM4.6875 4.5625C5.20703 4.5625 5.625 4.98047 5.625 5.5C5.625 6.01953 5.20703 6.4375 4.6875 6.4375H4.0625C3.54492 6.4375 3.125 6.01953 3.125 5.5C3.125 4.98047 3.54492 4.5625 4.0625 4.5625H4.6875ZM12.5 8.3125C12.5 7.79297 12.918 7.375 13.4375 7.375H14.0625C14.582 7.375 15 7.79297 15 8.3125C15 8.83203 14.582 9.25 14.0625 9.25H13.4375C12.918 9.25 12.5 8.83203 12.5 8.3125ZM12.1875 4.5625C12.707 4.5625 13.125 4.98047 13.125 5.5C13.125 6.01953 12.707 6.4375 12.1875 6.4375H11.5625C11.043 6.4375 10.625 6.01953 10.625 5.5C10.625 4.98047 11.043 4.5625 11.5625 4.5625H12.1875ZM16.25 8.3125C16.25 7.79297 16.668 7.375 17.1875 7.375H17.8125C18.332 7.375 18.75 7.79297 18.75 8.3125C18.75 8.83203 18.332 9.25 17.8125 9.25H17.1875C16.668 9.25 16.25 8.83203 16.25 8.3125ZM15.9375 4.5625C16.457 4.5625 16.875 4.98047 16.875 5.5C16.875 6.01953 16.457 6.4375 15.9375 6.4375H15.3125C14.793 6.4375 14.375 6.01953 14.375 5.5C14.375 4.98047 14.793 4.5625 15.3125 4.5625H15.9375ZM12.1875 1.75C12.707 1.75 13.125 2.16992 13.125 2.6875C13.125 3.20508 12.707 3.625 12.1875 3.625H11.5625C11.043 3.625 10.625 3.20508 10.625 2.6875C10.625 2.16992 11.043 1.75 11.5625 1.75H12.1875Z" fill="#000000"/>
</svg>
