<svg width="20" height="21" viewBox="0 0 20 21" fill="none" xmlns="http://www.w3.org/2000/svg">
<g clip-path="url(#clip0_502_3737)">
<path d="M11.6484 6.61719C9.58982 5.61328 7.17576 6.20703 5.74607 7.89844L7.90506 10.059C8.1492 10.3031 8.1492 10.6969 7.90506 10.941C7.78291 11.0582 7.62123 11.1209 7.46014 11.1209C7.29904 11.1209 7.14498 11.0582 7.02303 10.941L5.08982 8.97656L0.0859167 19.2422C-0.026388 19.4766 -0.0312708 19.7598 0.0859167 20.009C0.30076 20.4434 0.828104 20.6242 1.25779 20.4145L6.47654 17.8656L4.55857 15.9414C4.30947 15.7021 4.30947 15.3016 4.55857 15.0625C4.80271 14.8184 5.19803 14.8184 5.43748 15.0625L7.66326 17.2883L11.6476 15.3395C12.5851 14.8852 13.3859 14.1184 13.8793 13.1078C15.0586 10.6992 14.0586 7.79688 11.6484 6.61719ZM15.2422 5.25781C16.0039 3.66406 15.6133 1.78438 14.0273 0.5C12.0644 2.13086 11.9762 4.69922 13.7197 6.43359L14.0322 6.74609C15.8008 8.48828 18.375 8.40234 20 6.4375C18.7148 4.88672 16.8008 4.49609 15.2422 5.25781Z" fill="#000000"/>
</g>
<defs>
<clipPath id="clip0_502_3737">
<rect width="20" height="20" fill="white" transform="translate(0 0.5)"/>
</clipPath>
</defs>
</svg>
