<svg width="24" height="24" viewBox="0 0 24 24" fill="none" xmlns="http://www.w3.org/2000/svg">
<path d="M7.21875 2.58261L8.17125 1.71544C8.5725 1.34982 9.135 1.46091 9.4275 1.9634C9.72 2.4659 9.63 3.16948 9.22875 3.5351L8.1675 4.45806H9C9.63375 4.45806 10.1888 4.90805 10.5112 5.5268C9.64875 6.36116 9.07125 7.59865 9.0075 9.05175C7.96875 9.42206 7.2 10.5986 7.2 12.0002V22.5C7.2 23.0484 7.31625 23.5594 7.5225 24H1.8C0.805875 24 0 22.9922 0 21.75V6.75022C0 5.50805 0.805875 4.50025 1.8 4.50025H2.6325L1.5705 3.5351C1.1685 3.16948 1.07963 2.4659 1.37213 1.9634C1.66463 1.46091 2.2275 1.34982 2.6295 1.71544L3.65813 2.65058L3.34613 1.48107C3.189 0.891386 3.444 0.254503 3.915 0.0580525C4.35375 -0.138445 4.8975 0.180113 5.055 0.769512L5.42625 2.16449L5.8275 0.749825C5.9925 0.164036 6.50625 -0.14257 6.975 0.0648493C7.44375 0.272269 7.6875 0.915292 7.5225 1.50075L7.21875 2.58261ZM12.9075 5.95804C13.7475 5.95804 14.5425 6.48772 15.0563 7.32209L16.2 9.17831L17.3438 7.32209C17.8575 6.48772 18.6525 5.95804 19.4925 5.95804C20.9813 5.95804 22.2 7.5049 22.2 9.333C22.2 9.76893 22.1475 10.1486 22.0463 10.458H22.2C23.1938 10.458 24 11.508 24 12.708V16.5001H16.8V11.958H15.6V16.5001H8.4V12.708C8.4 11.508 9.20625 10.458 10.2 10.458H10.3538C10.2525 10.1486 10.2 9.76893 10.2 9.333C10.2 7.5049 11.4188 5.95804 12.9075 5.95804ZM13.6313 8.69551C13.4588 8.41426 13.1888 8.20801 12.9075 8.20801C12.405 8.20801 12 8.76113 12 9.333C12 9.99861 12.4013 10.458 12.9 10.458H14.7413L13.6313 8.69551ZM19.4925 8.20801C19.2113 8.20801 18.9412 8.41426 18.7688 8.69551L17.6588 10.458H19.5C19.9988 10.458 20.4 9.99861 20.4 9.333C20.4 8.76113 19.995 8.20801 19.4925 8.20801ZM8.4 21.75V18.0001H15.6V24H10.2C9.20625 24 8.4 22.9922 8.4 21.75ZM16.8 24V18.0001H24V21.75C24 22.9922 23.1938 24 22.2 24H16.8Z" fill="#000000"/>
</svg>
