<svg width="17" height="21" viewBox="0 0 17 21" fill="none" xmlns="http://www.w3.org/2000/svg">
<g clip-path="url(#clip0_502_3727)">
<path d="M3.64515 11.7617H13.3534L9.58528 19.7891C9.49042 20 9.33484 20.1797 9.11095 20.3086C8.95158 20.4336 8.72769 20.5 8.50001 20.5C8.23818 20.5 8.04845 20.4336 7.85492 20.3086C7.63104 20.1797 7.50961 20 7.41475 19.7891L3.64515 11.7617ZM14.6587 6.90625C14.8788 7 15.0799 7.13672 15.2507 7.3125C15.4176 7.48438 15.5543 7.69141 15.6453 7.91797C15.7364 8.14453 15.7516 8.35547 15.7857 8.63672C15.7857 8.87891 15.7402 9.125 15.6491 9.35156C15.5239 9.57812 15.4252 9.78516 15.2545 9.96094C15.0875 10.1328 14.8864 10.2734 14.6663 10.3672C14.4462 10.4609 14.2072 10.5117 13.9681 10.5117H3.03117C2.5485 10.5117 2.08555 10.3125 1.74479 9.96094C1.40403 9.60938 1.21316 9.09766 1.2143 8.63672C1.21544 8.13672 1.40783 7.66406 1.7501 7.3125C2.09238 6.96094 2.55571 6.76562 3.03838 6.76562H3.07595C3.05091 6.55078 3.038 6.33594 3.03725 6.11719C3.03725 4.62891 3.61251 3.19961 4.63707 2.1457C5.66162 1.0918 7.05046 0.5 8.46586 0.5C9.94577 0.5 11.3346 1.0918 12.3592 2.1457C13.3837 3.19961 13.9605 4.62891 13.9605 6.11719C13.9605 6.33594 13.9491 6.55078 13.9226 6.76562H13.9605C14.1996 6.76562 14.4386 6.8125 14.6587 6.90625Z" fill="#000000"/>
</g>
<defs>
<clipPath id="clip0_502_3727">
<rect width="17" height="20" fill="white" transform="translate(0 0.5)"/>
</clipPath>
</defs>
</svg>
