<svg width="24" height="24" viewBox="0 0 24 24" fill="none" xmlns="http://www.w3.org/2000/svg">
<g clip-path="url(#clip0_306_8612)">
<path d="M11.8714 6.9708C12.0375 7.56143 12.0428 8.18018 11.8982 8.77549C11.7482 9.3333 11.4429 9.9333 11.0143 10.4114C10.2375 11.1849 9.26785 11.6771 8.09464 11.9114V22.1255C8.09464 22.6224 7.91785 23.1005 7.51606 23.4521C7.11428 23.8036 6.56785 24.0005 5.95178 24.0005C5.43214 24.0005 4.88678 23.8036 4.48446 23.4521C4.08267 23.1005 3.80892 22.6224 3.80892 22.1255V11.9114C2.72999 11.7239 1.71214 11.1989 0.98035 10.4255C0.545886 9.94736 0.242618 9.38955 0.0940112 8.78955C-0.0545959 8.18955 -0.0445512 7.5708 0.123368 6.97549L1.7416 0.584084C1.78714 0.403521 1.90767 0.244099 2.07964 0.136427C2.25106 0.0287087 2.46267 -0.0196522 2.67267 0.000611815C2.88321 0.0206556 3.07821 0.108443 3.21964 0.247006C3.36106 0.385521 3.43821 0.564865 3.43714 0.75049V7.50049H4.36767L5.28321 0.558771C5.30464 0.405256 5.38928 0.263974 5.52321 0.161459C5.65178 0.0589899 5.82321 0.00236963 5.95178 0.00236963C6.17678 0.00236963 6.34821 0.0589899 6.47678 0.161459C6.61071 0.263974 6.64821 0.405256 6.71785 0.558771L7.63392 7.50049H8.52321V0.75049C8.52321 0.566271 8.64642 0.388052 8.73749 0.249724C8.92499 0.111396 9.11785 0.0227087 9.32678 0.000611815C9.53571 -0.0194882 9.70178 0.0295056 9.92142 0.138115C10.0928 0.246724 10.2107 0.407224 10.2589 0.588771L11.8714 6.9708ZM24 22.1255C24 22.6224 23.775 23.1005 23.3732 23.4521C22.9714 23.8036 22.425 24.0005 21.8571 24.0005C21.2893 24.0005 20.7429 23.8036 20.3411 23.4521C19.9393 23.1005 19.7143 22.6224 19.7143 22.1255V16.5005H18.8143C18.3643 16.5005 17.9143 16.4208 17.4964 16.2708C17.0839 16.1161 16.7036 15.8958 16.3821 15.6146C16.0661 15.3333 15.8143 15.0005 15.5946 14.6349C15.4714 14.2692 15.3857 13.8755 15.3857 13.4817L15.3804 8.14736C15.4286 6.41768 16.0232 4.72549 17.1321 3.29487C18.2411 1.8619 19.8107 0.752834 21.6482 0.110131C21.8625 0.0192868 22.1893 -0.0145194 22.4678 0.0116978C22.7464 0.0379056 23.0143 0.123302 23.2446 0.260459C23.475 0.397615 23.6679 0.582209 23.7964 0.798771C23.9304 1.01487 23.9518 1.2558 24 1.50049V22.1255Z" fill="#000000"/>
</g>
<defs>
<clipPath id="clip0_306_8612">
<rect width="24" height="24" fill="white"/>
</clipPath>
</defs>
</svg>
